<svg fill="none" height="24" viewBox="0 0 24 24" width="24" xmlns="http://www.w3.org/2000/svg"><path d="m15 10-.4932-.0822c-.0242.145.0167.2932.1117.4054.095.1121.2345.1768.3815.1768zm-11 0v-.5c-.27614 0-.5.22386-.5.5zm16.5216 2.3922.4902.0981zm-14.5216 8.1078h11.3604v-1h-11.3604zm12.5604-11h-3.5604v1h3.5604zm-3.0672.5822.8059-4.8356-.9864-.1644-.8059 4.8356zm-.6737-6.5822h-.2139v1h.2139zm-3.1261 1.55855-2.51569 3.7735.83209.5547 2.5156-3.7735zm-3.76377 4.44145h-3.92963v1h3.92963zm-4.42963.5v8h1v-8zm16.3118 8.4903 1.2-6-.9805-.1961-1.2 6zm-10.63409-9.65825c-.2782.4173-.74655.66795-1.24808.66795v1c.83589 0 1.61646-.4178 2.08017-1.11325zm7.12139-3.58545c.1524-.9143-.5527-1.7466-1.4796-1.7466v1c.309 0 .544.27743.4932.5822zm2.2613 5.2534c.9466 0 1.6565.866 1.4709 1.7942l.9805.1961c.3094-1.547-.8738-2.9903-2.4514-2.9903zm-1.2 10c1.1917 0 2.2177-.8411 2.4514-2.0097l-.9805-.1961c-.1403.7011-.7559 1.2058-1.4709 1.2058zm-2.7548-17c-1.1703 0-2.2631.58485-2.9122 1.55855l.832.5547c.4637-.6955 1.2443-1.11325 2.0802-1.11325zm-8.6056 16c-.82843 0-1.5-.6716-1.5-1.5h-1c0 1.3807 1.11929 2.5 2.5 2.5z" fill="#292929"/><path d="m8 10v10" stroke="#292929"/></svg>